<svg width="1962" height="1962" viewBox="0 0 1962 1962" fill="none" xmlns="http://www.w3.org/2000/svg">
<g clip-path="url(#clip0_1609_37)">
<rect width="1962" height="1962" rx="301" fill="#72D1AC"/>
<path d="M646.745 413.109C686.477 413.185 756.097 413.173 825.208 413.109H1040.2V606.64H825.208C642.238 606.64 607.822 606.951 594.089 608.758C500.699 621.019 435.053 682.946 416.632 776.155L413.418 792.396L412.965 972.51C412.473 1168.6 412.512 1169.83 420.457 1202.7C440.414 1285.27 526.489 1353.92 610.938 1353.92H839.946V1065.74H646.745V876.448H1040.2V1212L1040.2 1548.86H809.202C664.58 1549.37 575.6 1548.86 528.989 1540.92C340.046 1508.72 213.212 1374.13 193.359 1184.75C190.179 1154.41 190.229 808.366 193.42 777.94C214.803 573.939 342.93 432.197 579.022 415.189C589.406 414.441 619.465 413.058 646.745 413.109ZM1234.48 413C1371.61 413 1404.33 413 1439.65 418.203C1611.49 443.516 1723.86 543.963 1736.97 682.415C1749.16 811.2 1722.3 891.409 1644.64 958.146L1637.59 964.206L1641.11 966.593C1724.29 1008.23 1770 1106.56 1770 1222.59C1770 1260.57 1759.97 1323.4 1732.29 1375.95C1704.61 1428.51 1620.93 1526.97 1433.82 1543.12C1421.42 1544.19 1369.24 1548.84 1212.06 1548.85L1058.7 1548.86V1353.92L1209.94 1353.89C1343.04 1353.89 1384.07 1355.13 1429.26 1345.38C1474.45 1335.64 1550.3 1297.55 1543.2 1203.51C1536.09 1109.46 1462.06 1065.74 1329.53 1065.74H1268.82V876.448H1322.76C1437.57 876.448 1528.99 843.838 1522.98 738.182C1516.53 624.861 1397.58 610.683 1335.81 608.062C1302.52 606.65 1258.16 606.656 1187.38 606.65L1058.7 606.64V413H1234.48Z" fill="#26415A"/>
<path d="M646.745 413.109C686.477 413.185 756.097 413.173 825.208 413.109H1040.2V606.64H825.208C642.238 606.64 607.822 606.951 594.089 608.758C500.699 621.019 435.053 682.946 416.632 776.155L413.418 792.396L412.965 972.51C412.473 1168.6 412.512 1169.83 420.457 1202.7C440.414 1285.27 526.489 1353.92 610.938 1353.92H839.946V1065.74H646.745V876.448H1040.2V1212L1040.2 1548.86H809.202C664.58 1549.37 575.6 1548.86 528.989 1540.92C340.046 1508.72 213.212 1374.13 193.359 1184.75C190.179 1154.41 190.229 808.366 193.42 777.94C214.803 573.939 342.93 432.197 579.022 415.189C589.406 414.441 619.465 413.058 646.745 413.109ZM1234.48 413C1371.61 413 1404.33 413 1439.65 418.203C1611.49 443.516 1723.86 543.963 1736.97 682.415C1749.16 811.2 1722.3 891.409 1644.64 958.146L1637.59 964.206L1641.11 966.593C1724.29 1008.23 1770 1106.56 1770 1222.59C1770 1260.57 1759.97 1323.4 1732.29 1375.95C1704.61 1428.51 1620.93 1526.97 1433.82 1543.12C1421.42 1544.19 1369.24 1548.84 1212.06 1548.85L1058.7 1548.86V1353.92L1209.94 1353.89C1343.04 1353.89 1384.07 1355.13 1429.26 1345.38C1474.45 1335.64 1550.3 1297.55 1543.2 1203.51C1536.09 1109.46 1462.06 1065.74 1329.53 1065.74H1268.82V876.448H1322.76C1437.57 876.448 1528.99 843.838 1522.98 738.182C1516.53 624.861 1397.58 610.683 1335.81 608.062C1302.52 606.65 1258.16 606.656 1187.38 606.65L1058.7 606.64V413H1234.48Z" stroke="#25415A"/>
</g>
<defs>
<clipPath id="clip0_1609_37">
<rect width="1962" height="1962" fill="white"/>
</clipPath>
</defs>
</svg>
