<svg width="4808" height="596" viewBox="0 0 4808 596" fill="none" xmlns="http://www.w3.org/2000/svg">
<g clip-path="url(#clip0_1590_137)">
<path d="M1.20677 196.506C11.8713 95.0443 75.7729 24.5482 193.522 16.0892C198.7 15.7172 213.692 15.0288 227.297 15.0545C247.113 15.092 281.835 15.0861 316.303 15.0545H423.526V111.308H316.303C225.049 111.308 207.884 111.464 201.035 112.362C154.458 118.46 121.718 149.26 112.531 195.619L110.928 203.696L110.702 293.278C110.457 390.803 110.476 391.418 114.439 407.764C124.392 448.83 167.321 482.973 209.438 482.973H323.654V339.647H227.297V245.5H423.526L423.526 579.929H308.321C236.192 580.185 191.814 579.93 168.568 575.979C74.3345 559.965 11.0781 493.025 1.17677 398.837C-0.409415 383.749 -0.384863 211.638 1.20677 196.506Z" fill="#2E3F4B"/>
<path d="M442.045 111.308V15H544.913C613.303 15 629.624 15 647.24 17.5878C732.942 30.1776 788.988 80.1358 795.526 148.996C801.606 213.048 788.211 252.941 749.48 286.134L745.961 289.148L747.717 290.335C789.203 311.042 812 359.951 812 417.658C812 436.549 806.997 467.795 793.193 493.934C779.389 520.072 737.649 569.043 644.33 577.073L644.123 577.091H644.122C637.578 577.655 611.28 579.921 533.73 579.927L442.045 579.929V482.973L532.675 482.962C539.855 482.962 546.498 482.969 552.664 482.976C603.507 483.031 621.959 483.051 642.059 478.73C664.596 473.884 702.427 454.941 698.884 408.167C695.34 361.392 658.416 339.647 592.32 339.647H562.041V245.5H588.944C646.203 245.5 691.797 229.281 688.799 176.732C685.583 120.371 626.256 113.32 595.449 112.016C578.954 111.318 557 111.317 522.089 111.314L442.045 111.308Z" fill="#2E3F4B"/>
<path d="M823.602 17.7998H945.202V577H823.602V17.7998Z" fill="#8E8E8E"/>
<path d="M966.07 17.7998H1084.47L1318.07 379.4V17.7998H1439.67V577H1322.07L1087.67 215.4V577H966.07V17.7998Z" fill="#8E8E8E"/>
<path d="M1459.1 17.7998H1577.5L1811.1 379.4V17.7998H1932.7V577H1815.1L1580.7 215.4V577H1459.1V17.7998Z" fill="#8E8E8E"/>
<path d="M2473.6 17.7998H2603.2L2756.8 415.4L2911.2 17.7998H3040L2816.8 577H2697.6L2473.6 17.7998Z" fill="#8E8E8E"/>
<path d="M3060.5 17.7998H3179.7L3402.9 577H3278.9L3230.9 455.4H3009.3L2961.3 577H2836.5L3060.5 17.7998ZM3198.9 358.6L3119.7 145.8L3040.5 358.6H3198.9Z" fill="#8E8E8E"/>
<path d="M3408.9 119.4H3245.7V17.7998H3693.7V119.4H3530.5V577H3408.9V119.4Z" fill="#8E8E8E"/>
<path d="M3706.4 17.7998H3828V577H3706.4V17.7998Z" fill="#8E8E8E"/>
<path d="M4419.91 17.7998H4807.91V119.4H4541.51V249H4737.51V346.6H4541.51V475.4H4807.91V577H4419.91V17.7998Z" fill="#8E8E8E"/>
<path d="M3838.51 17.7998H3968.11L4121.71 415.4L4276.11 17.7998H4415L4181.71 577H4062.51L3838.51 17.7998Z" fill="#8E8E8E"/>
<path d="M2248 0C2412.58 0 2546 133.419 2546 298C2546 462.581 2412.58 596 2248 596C2083.42 596 1950 462.581 1950 298C1950 133.419 2083.42 0 2248 0ZM2451.89 172.526H2310.74L2359.13 220.925L2272.71 307.351L2193.11 227.747L2028.42 392.432L2072.78 436.794L2193.11 316.471L2272.71 396.075L2403.5 265.286L2451.89 313.684V172.526Z" fill="#2E3F4B"/>
</g>
<defs>
<clipPath id="clip0_1590_137">
<rect width="4808" height="596" fill="white"/>
</clipPath>
</defs>
</svg>
